<?xml version="1.0" encoding="utf-8"?>
<!-- Generator: Adobe Illustrator 26.4.1, SVG Export Plug-In . SVG Version: 6.00 Build 0)  -->
<svg version="1.1" id="Capa_1" xmlns="http://www.w3.org/2000/svg" xmlns:xlink="http://www.w3.org/1999/xlink" x="0px" y="0px"
	 viewBox="0 0 274 60.6" style="enable-background:new 0 0 274 60.6;" xml:space="preserve">
<style type="text/css">
	.st0{enable-background:new    ;}
	.st1{fill:#376ADE;}
</style>
<g class="st0">
	<path class="st1" d="M30.5,3.9V10H12.2v10.6h17.5v6.1H12.2v11.4h18.6v6.1H4.4V3.9H30.5z"/>
	<path class="st1" d="M49.3,16.8c4,0,7.1,1.3,9.4,3.8s3.5,6,3.5,10.5v1.1h-19c0.3,2.4,1.2,4.2,2.7,5.5c1.5,1.3,3.6,1.9,6.2,1.9
		c1.7,0,3.3-0.3,4.9-0.9c1.6-0.6,3.2-1.5,4.9-2.7v5.3c-3.1,2.2-7,3.3-11.5,3.3c-4.2,0-7.7-1.3-10.4-3.8c-2.7-2.6-4-6-4-10.2
		c0-4.1,1.2-7.4,3.7-10C42,18.1,45.3,16.8,49.3,16.8z M55.5,27.9c-0.2-2-0.8-3.5-1.8-4.6c-1-1.1-2.4-1.7-4.1-1.7
		c-1.8,0-3.2,0.5-4.3,1.6c-1.1,1.1-1.8,2.6-2.1,4.7H55.5z"/>
	<path class="st1" d="M90.8,17.3l-14,21.6h14.1v5.3H65l14-21.5h-13v-5.4H90.8z"/>
	<path class="st1" d="M99.8,17.3l6.4,14.5l6.5-14.5h7.6l-18.6,40.5h-7.6l8.6-18.5l-10.5-22H99.8z"/>
	<path class="st1" d="M127.7,17.3l6.3,15.5l6.4-15.5h4.6l6.3,15.5l6.3-15.5h7.4l-12,27.4h-3l-7.3-16.5l-7.3,16.5h-2.9l-12.1-27.4
		H127.7z"/>
	<path class="st1" d="M178.1,16.8c3.5,0,6.1,0.7,7.9,2.2c1.8,1.5,2.7,3.5,2.7,6.2v13.2c0,1,0.4,1.5,1.2,1.5c0.3,0,0.8-0.1,1.5-0.4
		s1.1-0.6,1.6-1v4.1c-2.5,1.5-4.7,2.3-6.8,2.3c-1.3,0-2.2-0.2-2.9-0.6s-1.2-1.2-1.4-2.2c-2.7,1.9-5.4,2.9-8.2,2.9
		c-1.9,0-3.6-0.7-5-2c-1.4-1.3-2.1-2.9-2.1-4.7c0-2.3,0.7-4.2,2.1-5.5c1.4-1.3,3.8-2.5,7.3-3.5l5.7-1.7v-1.2c0-2.6-1.6-3.9-4.8-3.9
		c-1.6,0-3.3,0.4-4.9,1.1c-1.6,0.8-3.1,1.9-4.4,3.3v-6.4C170.5,17.9,174,16.8,178.1,16.8z M173.7,37c0,1,0.3,1.8,0.9,2.4
		c0.6,0.6,1.4,0.9,2.3,0.9c1.6,0,3.1-0.7,4.7-2.1V31c-2,0.7-3.5,1.3-4.7,1.9c-1.1,0.6-2,1.2-2.5,1.8C174,35.4,173.7,36.1,173.7,37z"
		/>
	<path class="st1" d="M212.3,16.8c0.9,0,1.9,0.2,2.8,0.6c0.9,0.4,2,1.1,3.2,2.1l-2.5,6.2c-2.1-1.5-3.7-2.3-5-2.3
		c-1.1,0-2.2,0.4-3.2,1.2c-1.1,0.8-1.9,1.9-2.6,3.2c-0.6,1.3-1,2.7-1,4v12.3h-7.1V17.3h7.1v6.9h0.1c1.3-2.6,2.6-4.5,3.9-5.6
		C209.3,17.3,210.7,16.8,212.3,16.8z"/>
	<path class="st1" d="M238.5,17.9V3.9h7.1v40.2h-12.4c-4.3,0-7.7-1.2-10.3-3.7c-2.6-2.5-3.9-5.9-3.9-10.1c0-2.5,0.6-4.8,1.8-6.9
		c1.2-2.1,2.9-3.7,5-4.9c2.1-1.2,4.4-1.8,6.8-1.8C234.4,16.8,236.4,17.1,238.5,17.9z M234.8,38.8h3.7V23.2c-1.5-0.7-3-1.1-4.6-1.1
		c-2.4,0-4.2,0.7-5.7,2.2c-1.4,1.5-2.1,3.4-2.1,5.8C226.2,35.9,229.1,38.8,234.8,38.8z"/>
	<path class="st1" d="M261.4,16.8c1.5,0,2.9,0.2,4.2,0.5c1.3,0.3,2.7,0.9,4.1,1.6v5.7c-1.3-0.9-2.8-1.6-4.3-2.1
		c-1.5-0.5-2.9-0.8-4.1-0.8c-1,0-1.8,0.2-2.4,0.6c-0.6,0.4-0.9,0.9-0.9,1.6c0,0.4,0.2,0.8,0.7,1.2c0.5,0.4,1.8,1.1,3.9,2.2
		c3.1,1.6,5.2,3,6.5,4.3c1.2,1.3,1.9,2.9,1.9,4.7c0,2.6-0.9,4.6-2.7,6.1s-4.2,2.2-7.3,2.2c-1.9,0-3.7-0.2-5.4-0.6s-3-0.9-4.1-1.5
		v-5.9c3.5,1.9,6.4,2.9,8.7,2.9c1.2,0,2.2-0.2,2.9-0.6c0.8-0.4,1.1-1,1.1-1.7c0-0.4-0.1-0.8-0.4-1.2c-0.3-0.3-0.7-0.7-1.2-1.1
		c-0.5-0.4-2.2-1.2-5-2.6c-2.2-1-3.8-2.2-4.8-3.4s-1.6-2.7-1.6-4.3c0-2.4,0.9-4.3,2.8-5.7C255.9,17.5,258.4,16.8,261.4,16.8z"/>
</g>
</svg>
